<?xml version="1.0" encoding="UTF-8" standalone="no"?>
<!-- Created with Inkscape (http://www.inkscape.org/) -->

<svg
   xmlns:dc="http://purl.org/dc/elements/1.1/"
   xmlns:cc="http://creativecommons.org/ns#"
   xmlns:rdf="http://www.w3.org/1999/02/22-rdf-syntax-ns#"
   xmlns:svg="http://www.w3.org/2000/svg"
   xmlns="http://www.w3.org/2000/svg"
   xmlns:sodipodi="http://sodipodi.sourceforge.net/DTD/sodipodi-0.dtd"
   xmlns:inkscape="http://www.inkscape.org/namespaces/inkscape"
   width="200"
   height="100"
   viewBox="0 0 200 100"
   id="svg2"
   version="1.1"
   inkscape:version="0.91 r13725"
   sodipodi:docname="logo.svg">
  <defs
     id="defs4" />
  <sodipodi:namedview
     id="base"
     pagecolor="#ffffff"
     bordercolor="#666666"
     borderopacity="1.0"
     inkscape:pageopacity="0.0"
     inkscape:pageshadow="2"
     inkscape:zoom="1.1611219"
     inkscape:cx="92.385193"
     inkscape:cy="-6.8086563"
     inkscape:document-units="px"
     inkscape:current-layer="flowRoot4144"
     showgrid="false"
     inkscape:window-width="1276"
     inkscape:window-height="755"
     inkscape:window-x="4"
     inkscape:window-y="1"
     inkscape:window-maximized="1"
     units="px"
     inkscape:snap-global="true"
     inkscape:snap-grids="false"
     inkscape:snap-others="false"
     inkscape:snap-nodes="false"
     showguides="true"
     inkscape:guide-bbox="true" />
  <metadata
     id="metadata7">
    <rdf:RDF>
      <cc:Work
         rdf:about="">
        <dc:format>image/svg+xml</dc:format>
        <dc:type
           rdf:resource="http://purl.org/dc/dcmitype/StillImage" />
        <dc:title></dc:title>
      </cc:Work>
    </rdf:RDF>
  </metadata>
  <g
     inkscape:label="Layer 1"
     inkscape:groupmode="layer"
     id="layer1"
     transform="translate(0,-952.36216)">
    <flowRoot
       xml:space="preserve"
       id="flowRoot4136"
       style="font-style:normal;font-weight:normal;font-size:40px;line-height:125%;font-family:sans-serif;letter-spacing:0px;word-spacing:0px;fill:#000000;fill-opacity:1;stroke:none;stroke-width:1px;stroke-linecap:butt;stroke-linejoin:miter;stroke-opacity:1"><flowRegion
         id="flowRegion4138"><rect
           id="rect4140"
           width="537.14288"
           height="368.57144"
           x="97.14286"
           y="278.07648" /></flowRegion><flowPara
         id="flowPara4142"
         style="font-size:180px">Clarita</flowPara></flowRoot>    <g
       transform="matrix(4.6253835,0,0,9.8476007,-138.39289,-613.85598)"
       style="font-style:normal;font-weight:normal;font-size:40px;line-height:125%;font-family:sans-serif;letter-spacing:0px;word-spacing:0px;fill:#f0db3e;fill-opacity:1;stroke:none;stroke-width:1.00000083;stroke-linecap:butt;stroke-linejoin:miter;stroke-miterlimit:4;stroke-dasharray:none;stroke-opacity:1"
       id="flowRoot4144">
      <flowRoot
         xml:space="preserve"
         id="flowRoot4185"
         style="font-style:normal;font-weight:normal;font-size:40px;line-height:125%;font-family:sans-serif;letter-spacing:0px;word-spacing:0px;fill:#000000;fill-opacity:1;stroke:none;stroke-width:1px;stroke-linecap:butt;stroke-linejoin:miter;stroke-opacity:1"
         transform="matrix(0.21619829,0,0,0.10154758,29.920306,159.04566)"><flowRegion
           id="flowRegion4187"><rect
             id="rect4189"
             width="121.86489"
             height="52.966011"
             x="-14.641011"
             y="-52.869385" /></flowRegion><flowPara
           id="flowPara4191">clarita</flowPara></flowRoot>      <g
         id="g4254">
        <g
           id="flowRoot4193"
           style="font-style:normal;font-weight:normal;font-size:40px;line-height:125%;font-family:sans-serif;letter-spacing:0px;word-spacing:0px;fill:#000000;fill-opacity:1;stroke:none;stroke-width:1px;stroke-linecap:butt;stroke-linejoin:miter;stroke-opacity:1"
           transform="matrix(0.22749051,-0.03399562,0.07237785,0.10685149,45.939308,168.70697)">
          <path
             inkscape:connector-curvature="0"
             id="path4202"
             transform="translate(3.1264901e-7,-1.2747961e-5)"
             d="m -9.7832031,-51.607422 c -2.4999999,0 -5.1367189,0.585937 -7.9101559,1.757813 -1.328126,0.546874 -2.623698,1.210937 -3.886719,1.992187 -1.25,0.768229 -2.441406,1.634114 -3.574219,2.597656 -1.119791,0.950521 -2.148437,1.972657 -3.085937,3.066407 -0.9375,1.09375 -1.751302,2.239583 -2.441407,3.4375 -0.677083,1.197916 -1.204427,2.428385 -1.582031,3.691406 -0.377604,1.263021 -0.566406,2.610677 -0.566406,4.042969 0,1.432291 0.221354,2.773437 0.664062,4.023437 0.859376,2.421876 2.376302,4.238282 4.550782,5.449219 2.018228,1.132813 4.342447,1.699219 6.972656,1.699219 4.244791,0 8.079427,-1.263021 11.5039061,-3.789063 0.7743311,-0.573092 1.4698053,-1.19322 2.1015625,-1.851562 0.016269,0.06957 0.029287,0.142538 0.046875,0.210937 0.7161459,2.916667 2.7799479,4.375 6.19140628,4.375 2.95572912,0 5.64453122,-0.989583 8.06640622,-2.96875 0.4033914,-0.328689 0.7771373,-0.677895 1.1367188,-1.035156 0.1964326,1.001406 0.6354886,1.850332 1.3242187,2.539062 0.9765624,0.976562 2.2786454,1.464844 3.9062504,1.464844 2.565104,0 4.739583,-1.041667 6.523437,-3.125 l 0,0.488281 c 0,0.260417 0.104167,0.566407 0.3125,0.917969 0.651042,1.145833 1.927084,1.71875 3.828125,1.71875 1.497396,0 3.033854,-0.559896 4.609375,-1.679687 0.703125,-0.507813 1.367188,-1.08073 1.992188,-1.71875 0.625,-0.638021 1.191406,-1.289063 1.699218,-1.953125 0.389398,-0.509213 0.788649,-1.114849 1.19336,-1.769532 1.04516,-1.546306 2.102776,-3.211017 3.18164,-5.085937 1.09375,0.247396 2.421875,0.410156 3.984375,0.488281 -1.601562,0.885417 -2.923177,2.005208 -3.964843,3.359375 -0.507813,0.651042 -0.911459,1.321615 -1.210938,2.011719 -0.286458,0.690104 -0.429687,1.393229 -0.429687,2.109375 0,0.703125 0.14974,1.321615 0.449218,1.855469 0.872396,1.588541 2.591146,2.382812 5.15625,2.382812 1.510417,0 3.053385,-0.559896 4.628907,-1.679687 0.703124,-0.507813 1.367187,-1.08073 1.992187,-1.71875 0.216986,-0.221506 0.41628,-0.447231 0.619141,-0.671875 0.03312,0.695461 0.161605,1.301375 0.396484,1.804687 0.716146,1.588542 2.083333,2.382813 4.101563,2.382813 1.914062,0 3.776041,-0.572917 5.585937,-1.71875 0.807292,-0.507813 1.549479,-1.08724 2.226563,-1.738282 0.50138,-0.473 0.946329,-0.951767 1.365234,-1.43164 0.193437,3.191524 2.262641,4.791015 6.212891,4.791015 2.1875,0 4.231771,-0.559895 6.132812,-1.679687 0.872396,-0.507813 1.666667,-1.080729 2.382813,-1.71875 0.269347,-0.244861 0.516315,-0.491578 0.761718,-0.738281 0.184465,1.051849 0.632725,1.937412 1.347657,2.652343 0.976562,0.976562 2.278645,1.464844 3.90625,1.464844 2.565104,0 4.739583,-1.041667 6.523437,-3.125 l 0,0.488281 c 0,0.260417 0.104167,0.566407 0.3125,0.917969 0.651042,1.145833 1.927084,1.71875 3.828125,1.71875 1.497396,0 3.033854,-0.559896 4.609375,-1.679687 0.703125,-0.507813 1.367188,-1.08073 1.992188,-1.71875 0.625004,-0.638021 1.191414,-1.289063 1.699214,-1.953125 0.50782,-0.664063 1.02865,-1.451824 1.5625,-2.363282 0.54688,-0.911458 0.82032,-1.588542 0.82032,-2.03125 0,-0.520831 -0.29297,-0.761716 -0.87891,-0.722656 -0.79427,1.184896 -1.71875,2.174479 -2.77344,2.96875 -1.184891,0.872396 -2.259112,1.308594 -3.222653,1.308594 -0.742187,0 -1.113281,-0.585938 -1.113281,-1.757813 0,-1.184896 0.423177,-2.962239 1.269531,-5.332031 0.234375,-0.664062 0.455729,-1.276041 0.664062,-1.835937 0.208334,-0.559896 0.397135,-1.041667 0.566407,-1.445313 0.169267,-0.416667 0.279944,-0.709635 0.332031,-0.878906 -0.559896,-0.143229 -1.08724,-0.214844 -1.582031,-0.214844 -0.15625,0 -0.377604,0.03906 -0.664063,0.117188 -0.273437,0.0651 -0.585937,0.305989 -0.9375,0.722656 -0.442708,-0.325521 -1.178385,-0.488281 -2.207031,-0.488281 -2.708333,0 -5.332031,0.592447 -7.871094,1.777343 -2.447917,1.145834 -4.427083,2.630209 -5.9375,4.453125 -0.874535,1.049442 -1.495804,2.116973 -1.880859,3.203125 -1.434325,1.118318 -3.073173,1.679688 -4.916016,1.679688 -2.630208,0 -3.945312,-0.976563 -3.945312,-2.929688 0,-1.419271 0.644531,-3.203125 1.933593,-5.351562 2.565105,0.611979 4.407553,0.917969 5.527344,0.917969 0.455729,0 0.859375,-0.696615 1.210938,-2.089844 -0.664063,-0.03906 -2.48698,-0.319011 -5.46875,-0.839844 1.536458,-2.226562 3.183593,-4.199219 4.941406,-5.917969 -0.208333,-0.260416 -0.494792,-0.488281 -0.859375,-0.683593 -0.169271,-0.09114 -0.338541,-0.162757 -0.507813,-0.214844 -0.15625,-0.06511 -0.338541,-0.09766 -0.546875,-0.09766 -0.208333,0 -0.566406,0.15625 -1.074218,0.46875 -1.666667,1.041666 -3.652344,2.962239 -5.957032,5.761718 l -2.949218,-0.488281 c -0.130206,0.234375 -0.221351,0.546875 -0.273438,0.9375 -0.01302,0.169271 3e-6,0.319011 0.03906,0.449219 0.03906,0.130206 0.143228,0.227862 0.3125,0.292969 0.16927,0.05208 0.390625,0.117187 0.664062,0.195312 0.273437,0.07813 0.572916,0.169271 0.898438,0.273438 -1.819662,2.428631 -3.113399,4.551308 -3.919922,6.390625 -0.531331,0.60412 -1.102744,1.148869 -1.72461,1.617187 -0.533854,0.390625 -1.080729,0.709635 -1.640625,0.957031 -0.546874,0.234375 -1.139323,0.351563 -1.777343,0.351563 -0.638022,0 -1.171876,-0.221355 -1.601563,-0.664063 -0.429687,-0.455729 -0.644531,-0.963541 -0.644531,-1.523437 0,-0.572917 0.08463,-1.158855 0.253906,-1.757813 0.520833,-1.966146 1.764323,-4.003905 3.730469,-6.113281 -0.104167,-0.130208 -0.351562,-0.325521 -0.742188,-0.585937 -0.377604,-0.273438 -0.722656,-0.410157 -1.035156,-0.410157 -0.729167,0 -1.868489,0.735678 -3.417969,2.207032 -0.703124,0.677083 -1.41276,1.458333 -2.128906,2.34375 -0.716146,0.872396 -1.367188,1.783854 -1.953125,2.734375 -0.202704,0.331698 -0.378386,0.664718 -0.556641,0.998046 -0.493705,0.542989 -1.022113,1.03387 -1.591796,1.462891 -1.184896,0.872396 -2.265625,1.308594 -3.242188,1.308594 -1.445313,0 -2.167969,-0.605469 -2.167969,-1.816406 0,-0.286459 0.05859,-0.585938 0.175782,-0.898438 0.377604,-0.976562 1.028645,-1.88151 1.953125,-2.714844 0.182291,0 0.364583,-0.08463 0.546875,-0.253906 0.664062,-0.559895 1.041666,-1.289062 1.132812,-2.1875 -3.046875,-0.169271 -5.572916,-0.742187 -7.578125,-1.71875 0.442709,-0.963541 0.664063,-1.647135 0.664063,-2.050781 0,-0.416667 -0.130209,-0.748698 -0.390625,-0.996094 -0.664063,-0.651041 -1.634115,-0.976562 -2.910157,-0.976562 -0.416666,0 -1.061198,0.533854 -1.933593,1.601562 -0.92448,1.09375 -1.386719,1.992187 -1.386719,2.695313 0,1.145833 0.683594,2.03125 2.050781,2.65625 -0.840265,2.287389 -2.240433,4.199407 -4.189453,5.74414 -0.950017,0.598587 -1.828817,0.916016 -2.626953,0.916016 -0.742187,0 -1.113281,-0.585938 -1.113281,-1.757813 0,-1.184896 0.423177,-2.962239 1.269531,-5.332031 0.234375,-0.664062 0.455729,-1.276041 0.664062,-1.835937 0.208334,-0.559896 0.397135,-1.041667 0.566407,-1.445313 0.169267,-0.416667 0.279944,-0.709635 0.332031,-0.878906 -0.559896,-0.143229 -1.08724,-0.214844 -1.582031,-0.214844 -0.15625,0 -0.377604,0.03906 -0.664063,0.117188 -0.273437,0.0651 -0.585937,0.305989 -0.9375,0.722656 -0.442708,-0.325521 -1.178385,-0.488281 -2.207031,-0.488281 -2.708333,0 -5.332031,0.592447 -7.871094,1.777343 -2.447917,1.145834 -4.427083,2.630209 -5.9375,4.453125 -0.8373467,1.004817 -1.4434201,2.025982 -1.8320311,3.064454 -0.4215716,0.321171 -0.8588134,0.618324 -1.3320313,0.861328 -0.6510416,0.338541 -1.3085938,0.585937 -1.9726562,0.742187 -0.6510417,0.143229 -1.2630209,0.214844 -1.8359375,0.214844 -0.5598959,0 -1.0481771,-0.04557 -1.4648438,-0.136719 -1.30208329,-0.286458 -2.03776038,-1.432291 -2.20703123,-3.4375 1.64062503,-0.989583 3.20312503,-2.167969 4.68750003,-3.535156 3.9062501,-3.58073 5.8593751,-6.979167 5.8593751,-10.195313 0,-2.434896 -0.7226563,-3.652343 -2.1679689,-3.652343 -1.0286458,0 -2.4348958,0.611979 -4.21875,1.835937 -0.8333333,0.585938 -1.6927083,1.282553 -2.578125,2.089844 -0.88541662,0.794271 -1.75781245,1.666666 -2.6171875,2.617187 -0.8463541,0.950521 -1.6536458,1.966146 -2.421875,3.046875 -0.7552083,1.080729 -1.4192708,2.1875 -1.9921875,3.320313 -0.5729166,1.119792 -1.0286458,2.252604 -1.3671875,3.398437 -0.3134985,1.061072 -0.4748563,2.11611 -0.4980468,3.166016 -2.3761673,1.859869 -5.1200568,2.791016 -8.2324218,2.791016 -3.046875,0 -5.514323,-0.885417 -7.402344,-2.65625 -1.627604,-1.523438 -2.441406,-3.450521 -2.441406,-5.78125 0,-2.317709 0.755208,-4.694011 2.265625,-7.128907 0.703125,-1.132812 1.529947,-2.187499 2.480469,-3.164062 0.963541,-0.989583 1.992187,-1.848958 3.085937,-2.578125 1.106771,-0.729167 2.259115,-1.302083 3.457031,-1.71875 1.197917,-0.429687 2.213542,-0.644531 3.046875,-0.644531 0.833334,0 1.432292,0.123697 1.7968754,0.371093 0.3776041,0.234375 0.5664062,0.61849 0.5664062,1.152344 0,0.716146 -0.3515625,1.497396 -1.0546875,2.34375 0.078125,0.09115 0.234375,0.227864 0.46875,0.410156 1.0546876,0.794271 1.8424479,1.191407 2.3632813,1.191407 0.5598958,0 1.1523437,-0.338542 1.7773437,-1.015625 0.2994792,-0.325521 0.5468751,-0.709635 0.7421875,-1.152344 0.1953126,-0.455729 0.2929688,-0.996094 0.2929688,-1.621094 0,-0.625 -0.1627604,-1.184896 -0.4882813,-1.679687 -0.9114583,-1.432292 -2.6367187,-2.148438 -5.1757812,-2.148438 z m 71.5820311,3.90625 c -1.289063,0 -2.395834,0.338542 -3.320312,1.015625 -0.429688,0.3125 -0.761719,0.690104 -0.996094,1.132813 -0.221354,0.442708 -0.332031,0.983072 -0.332031,1.621093 0,0.638021 0.3125,1.184896 0.9375,1.640625 0.286458,0.208334 0.611979,0.371094 0.976562,0.488282 0.364583,0.104166 0.77474,0.15625 1.230469,0.15625 0.455729,0 0.989584,-0.0651 1.601562,-0.195313 0.625,-0.143229 1.204427,-0.345052 1.738282,-0.605469 0.533854,-0.273438 0.983073,-0.605469 1.347656,-0.996093 0.364583,-0.390626 0.546875,-0.93099 0.546875,-1.621094 0,-0.690104 -0.299479,-1.302084 -0.898438,-1.835938 -0.585937,-0.533854 -1.529948,-0.800781 -2.832031,-0.800781 z m -55.0195311,2.832031 c 0.2604166,0 0.4427083,0.05859 0.546875,0.175782 0.3125,0.32552 0.46875,0.859375 0.46875,1.601562 0,1.484375 -0.7617187,3.196615 -2.2851563,5.136719 -1.4973958,1.914063 -3.3398437,3.554688 -5.52734373,4.921875 0.14322917,-1.692708 0.64453127,-3.522135 1.50390623,-5.488281 0.390625,-0.872396 0.8203125,-1.692709 1.2890625,-2.460938 0.4817709,-0.78125 0.9700521,-1.458333 1.4648438,-2.03125 0.4947916,-0.572917 0.9765625,-1.022135 1.4453125,-1.347656 0.46875,-0.338541 0.8333333,-0.507813 1.09375,-0.507813 z m 18.9453121,8.457032 c -0.390624,0.572916 -0.963541,1.40625 -1.71875,2.5 -0.742187,1.09375 -1.614583,2.239583 -2.617187,3.4375 -1.888021,2.252604 -3.528646,3.378906 -4.921875,3.378906 -1.263021,0 -1.894531,-0.755208 -1.894531,-2.265625 0,-1.835937 1.015625,-3.44401 3.046875,-4.824219 2.148437,-1.458335 4.85026,-2.200522 8.105468,-2.226562 z m 68.984375,0 c -0.390624,0.572916 -0.963541,1.40625 -1.71875,2.5 -0.742187,1.09375 -1.614583,2.239583 -2.617187,3.4375 -1.888021,2.252604 -3.528646,3.378906 -4.921875,3.378906 -1.263021,0 -1.894531,-0.755208 -1.894531,-2.265625 0,-1.835937 1.015625,-3.44401 3.046875,-4.824219 2.148437,-1.458335 4.85026,-2.200522 8.105468,-2.226562 z"
             style="font-style:italic;font-variant:normal;font-weight:normal;font-stretch:normal;font-family:Molle;-inkscape-font-specification:'Molle Italic';fill:#f0db3e;fill-opacity:1;stroke:#000000;stroke-opacity:1" />
        </g>
        <g
           id="flowRoot4217"
           style="font-style:normal;font-weight:normal;font-size:40px;line-height:125%;font-family:sans-serif;letter-spacing:0px;word-spacing:0px;fill:#000000;fill-opacity:1;stroke:none;stroke-width:1px;stroke-linecap:butt;stroke-linejoin:miter;stroke-opacity:1"
           transform="matrix(0.16991989,-7.0347912e-4,0.00149775,0.07981078,34.067778,161.12167)">
          <path
             id="path4238"
             style="font-style:normal;font-variant:normal;font-weight:normal;font-stretch:normal;font-size:20px;font-family:Superclarendon;-inkscape-font-specification:Superclarendon"
             d="m 113.95203,71.703478 q 0.5,-1.02 1.52,-1.5 1.02,-0.5 2.46,-0.5 0.98,0 1.86,0.3 0.88,0.3 1.54,0.96 0.68,0.66 1.06,1.7 0.4,1.02 0.4,2.48 0,1.5 -0.44,2.54 -0.44,1.04 -1.18,1.7 -0.72,0.64 -1.66,0.94 -0.94,0.3 -1.94,0.3 -0.98,0 -1.8,-0.26 -0.8,-0.26 -1.26,-0.74 l 0,3.32 q 0,0.9 2.18,0.9 l 0,1.12 -6.66,0 0,-1.12 q 1.74,0 1.74,-0.9 l 0,-10.82 q 0,-0.92 -1.74,-0.92 l 0,-1.14 3.76,0 0.16,1.64 z m 3.14,-0.54 q -0.78,0 -1.32,0.3 -0.54,0.3 -0.88,0.84 -0.32,0.52 -0.46,1.28 -0.14,0.74 -0.14,1.64 0,0.9 0.14,1.66 0.14,0.74 0.46,1.28 0.34,0.52 0.88,0.82 0.54,0.3 1.32,0.3 0.78,0 1.34,-0.3 0.56,-0.3 0.92,-0.82 0.36,-0.54 0.52,-1.28 0.16,-0.76 0.16,-1.66 0,-0.9 -0.16,-1.64 -0.16,-0.76 -0.52,-1.28 -0.36,-0.54 -0.92,-0.84 -0.56,-0.3 -1.34,-0.3 z" />
          <path
             id="path4240"
             style="font-style:normal;font-variant:normal;font-weight:normal;font-stretch:normal;font-size:20px;font-family:Superclarendon;-inkscape-font-specification:Superclarendon"
             d="m 135.40297,75.103478 q 0,2.62 -1.44,4.06 -1.44,1.42 -4.18,1.42 -1.08,0 -2.06,-0.26 -0.98,-0.24 -1.72,-0.84 -0.72,-0.62 -1.16,-1.62 -0.44,-1.02 -0.44,-2.52 0,-2.74 1.38,-4.2 1.38,-1.48 4.22,-1.48 1.1,0 2.08,0.28 1,0.26 1.72,0.9 0.74,0.62 1.16,1.66 0.44,1.04 0.44,2.6 z m -5.42,-4.12 q -1.5,0 -2.18,0.98 -0.68,0.96 -0.68,2.78 0,1.36 0.18,2.24 0.18,0.88 0.52,1.4 0.36,0.5 0.84,0.7 0.5,0.2 1.14,0.2 1.58,0 2.22,-1.06 0.64,-1.06 0.64,-3 0,-1.26 -0.2,-2.08 -0.18,-0.82 -0.54,-1.3 -0.36,-0.48 -0.86,-0.66 -0.48,-0.2 -1.08,-0.2 z" />
          <path
             id="path4242"
             style="font-style:normal;font-variant:normal;font-weight:normal;font-stretch:normal;font-size:20px;font-family:Superclarendon;-inkscape-font-specification:Superclarendon"
             d="m 141.36109,78.203478 q 0,0.9 1.74,0.9 l 0,1.14 -6.2,0 0,-1.14 q 1.72,0 1.72,-0.9 l 0,-11.32 q 0,-0.9 -1.72,-0.9 l 0,-1.14 4.46,0 0,13.36 z" />
          <path
             id="path4244"
             style="font-style:normal;font-variant:normal;font-weight:normal;font-stretch:normal;font-size:20px;font-family:Superclarendon;-inkscape-font-specification:Superclarendon"
             d="m 149.09547,78.203478 q 0,0.9 1.74,0.9 l 0,1.14 -6.2,0 0,-1.14 q 1.72,0 1.72,-0.9 l 0,-11.32 q 0,-0.9 -1.72,-0.9 l 0,-1.14 4.46,0 0,13.36 z" />
          <path
             id="path4246"
             style="font-style:normal;font-variant:normal;font-weight:normal;font-stretch:normal;font-size:20px;font-family:Superclarendon;-inkscape-font-specification:Superclarendon"
             d="m 155.14984,75.003478 q 0.04,2.06 0.76,3.18 0.72,1.1 2.18,1.1 1.14,0 2.02,-0.56 0.88,-0.56 1.22,-1.82 l 1.24,0.24 q -0.18,0.66 -0.54,1.28 -0.34,0.62 -0.9,1.1 -0.56,0.48 -1.36,0.76 -0.78,0.3 -1.84,0.3 -1.04,0 -2.02,-0.26 -0.98,-0.24 -1.76,-0.86 -0.76,-0.62 -1.24,-1.66 -0.46,-1.06 -0.46,-2.66 0,-1.22 0.36,-2.22 0.38,-1.02 1.08,-1.74 0.7,-0.72 1.7,-1.12 1.02,-0.4 2.32,-0.4 5.04,0 5.04,5.34 l -7.8,0 z m 5.32,-1.06 q 0,-0.66 -0.16,-1.22 -0.16,-0.58 -0.48,-1 -0.32,-0.44 -0.8,-0.68 -0.46,-0.26 -1.08,-0.26 -1.08,0 -1.84,0.74 -0.76,0.74 -0.92,2.42 l 5.28,0 z" />
          <path
             id="path4248"
             style="font-style:normal;font-variant:normal;font-weight:normal;font-stretch:normal;font-size:20px;font-family:Superclarendon;-inkscape-font-specification:Superclarendon"
             d="m 168.97828,71.963478 q 0.58,-1.14 1.4,-1.64 0.84,-0.52 1.8,-0.52 0.44,0 0.9,0.14 0.48,0.14 0.86,0.44 0.38,0.3 0.62,0.78 0.24,0.46 0.24,1.1 0,0.76 -0.42,1.26 -0.4,0.48 -1.1,0.48 -0.7,0 -1.06,-0.36 -0.36,-0.38 -0.36,-0.9 0,-0.5 0.32,-0.84 0.34,-0.34 1.02,-0.36 -0.16,-0.3 -0.52,-0.46 -0.36,-0.16 -0.76,-0.16 -0.36,0 -0.78,0.18 -0.4,0.18 -0.8,0.54 -0.38,0.36 -0.74,0.94 -0.36,0.56 -0.62,1.34 l 0,4.28 q 0,0.46 0.5,0.68 0.5,0.22 1.46,0.22 l 0,1.14 -6.42,0 0,-1.14 q 1.72,0 1.72,-0.9 l 0,-6.1 q 0,-0.9 -1.72,-0.9 l 0,-1.14 4.46,0 0,1.9 z" />
          <path
             id="path4250"
             style="font-style:normal;font-variant:normal;font-weight:normal;font-stretch:normal;font-size:20px;font-family:Superclarendon;-inkscape-font-specification:Superclarendon"
             d="m 176.87422,68.003478 q 0.6,-0.24 1.16,-0.6 0.56,-0.38 1.08,-0.7 0.52,-0.34 1.02,-0.58 0.5,-0.24 1.02,-0.24 0.6,0 0.84,0.3 0.26,0.28 0.26,0.66 0,0.5 -0.52,0.76 -0.52,0.26 -1.28,0.44 -0.76,0.16 -1.64,0.3 -0.86,0.14 -1.56,0.38 l -0.38,-0.72 z m 3.94,10.2 q 0,0.9 1.74,0.9 l 0,1.14 -6.2,0 0,-1.14 q 1.72,0 1.72,-0.9 l 0,-6.08 q 0,-0.92 -1.72,-0.92 l 0,-1.14 4.46,0 0,8.14 z" />
          <path
             id="path4252"
             style="font-style:normal;font-variant:normal;font-weight:normal;font-stretch:normal;font-size:20px;font-family:Superclarendon;-inkscape-font-specification:Superclarendon"
             d="m 194.22859,78.283478 q 0,0.88 0.6,0.88 0.28,0 0.42,-0.26 0.14,-0.28 0.14,-0.62 l 0,-1.18 0.94,0 0,0.9 q 0,0.66 -0.16,1.12 -0.16,0.46 -0.46,0.74 -0.3,0.28 -0.72,0.4 -0.4,0.12 -0.88,0.12 -0.54,0 -0.92,-0.16 -0.38,-0.18 -0.64,-0.46 -0.26,-0.28 -0.4,-0.64 -0.14,-0.36 -0.22,-0.76 -0.22,0.44 -0.62,0.84 -0.38,0.4 -0.92,0.72 -0.54,0.3 -1.22,0.48 -0.68,0.18 -1.46,0.18 -1.88,0 -2.76,-0.76 -0.86,-0.78 -0.86,-2.1 0,-0.8 0.3,-1.32 0.32,-0.54 0.86,-0.9 0.56,-0.36 1.28,-0.56 0.74,-0.22 1.56,-0.38 0.84,-0.18 1.72,-0.34 0.9,-0.16 1.78,-0.4 l 0,-0.62 q 0,-0.5 -0.14,-0.94 -0.12,-0.44 -0.42,-0.76 -0.28,-0.34 -0.72,-0.52 -0.44,-0.2 -1.04,-0.2 -1.02,0 -1.72,0.2 -0.68,0.2 -1.1,0.54 0.46,0.04 0.78,0.3 0.32,0.26 0.32,0.74 0,0.56 -0.36,0.92 -0.36,0.34 -1.06,0.34 -0.7,0 -1.06,-0.36 -0.34,-0.38 -0.34,-1.04 0,-0.5 0.32,-1 0.32,-0.5 0.92,-0.88 0.6,-0.4 1.48,-0.64 0.9,-0.24 2.04,-0.24 0.92,0 1.78,0.18 0.86,0.16 1.52,0.58 0.66,0.4 1.04,1.12 0.4,0.7 0.4,1.78 l 0,4.96 z m -2.62,-3.68 q -1.28,0.32 -2.22,0.6 -0.94,0.26 -1.56,0.58 -0.62,0.3 -0.92,0.7 -0.3,0.4 -0.3,1 0,0.72 0.5,1.12 0.5,0.4 1.52,0.4 1.02,0 1.8,-0.48 0.8,-0.5 1.18,-1.14 l 0,-2.78 z" />
        </g>
      </g>
    </g>
    <flowRoot
       xml:space="preserve"
       id="flowRoot4152"
       style="font-style:normal;font-weight:normal;font-size:40px;line-height:125%;font-family:sans-serif;letter-spacing:0px;word-spacing:0px;fill:#000000;fill-opacity:1;stroke:none;stroke-width:1px;stroke-linecap:butt;stroke-linejoin:miter;stroke-opacity:1"><flowRegion
         id="flowRegion4154"><rect
           id="rect4156"
           width="577.14288"
           height="208.57143"
           x="-551.42859"
           y="198.07649" /></flowRegion><flowPara
         id="flowPara4158" /></flowRoot>  </g>
</svg>
